<svg width="581" height="534" viewBox="0 0 581 534" fill="none" xmlns="http://www.w3.org/2000/svg">
<g filter="url(#filter0_d_2037_2)">
<rect x="9.646" y="2" width="340.854" height="399.188" rx="30" fill="white"/>
<rect x="10.146" y="2.5" width="339.854" height="398.188" rx="29.5" stroke="#BDBDBD"/>
</g>
<path d="M56.3192 91.0227L51.7192 86.3427V61.8627H76.1992L80.7992 66.5427V91.0227H56.3192ZM53.0792 85.8627H75.5992V63.3827H53.0792V85.8627Z" fill="#1B2B42"/>
<rect x="104.582" y="68.3407" width="192.159" height="16.0133" rx="8.00664" fill="#1B2B42"/>
<path d="M56.3192 216.841L51.7192 212.161V187.681H76.1992L80.7992 192.361V216.841H56.3192ZM53.0792 211.681H75.5992V189.201H53.0792V211.681Z" fill="#1B2B42"/>
<rect x="104.582" y="194.159" width="192.159" height="16.0133" rx="8.00664" fill="#1B2B42"/>
<path d="M59.0842 341.65C59.0842 341.26 59.0092 341.065 58.8592 341.065L57.8242 341.56C57.8242 341.35 57.7042 341.2 57.4642 341.11L57.1042 341.065C56.8642 341.065 56.5642 341.17 56.2042 341.38C56.1442 341.23 56.0692 341.08 55.9792 340.93C55.8892 340.78 55.8142 340.645 55.7542 340.525C55.3642 339.775 54.9742 338.95 54.5842 338.05C54.2242 337.12 53.8792 336.235 53.5492 335.395C53.2492 334.555 53.0092 333.895 52.8292 333.415C52.7092 333.025 52.5742 332.44 52.4242 331.66C52.2742 330.88 52.1242 329.89 51.9742 328.69C52.3042 328.9 52.5592 329.005 52.7392 329.005C52.9492 329.005 53.1442 328.69 53.3242 328.06C53.4142 328.18 53.5792 328.24 53.8192 328.24C53.9992 328.24 54.1342 328.18 54.2242 328.06L54.9442 326.98L55.7542 327.25H55.7992C55.8592 327.25 55.9192 327.22 55.9792 327.16C56.0392 327.1 56.1292 327.04 56.2492 326.98C56.4892 326.83 56.6692 326.755 56.7892 326.755L56.9242 326.8C57.6742 327.16 58.1542 327.82 58.3642 328.78C58.9042 331.06 59.4442 332.2 59.9842 332.2C60.5242 332.2 61.1542 331.63 61.8742 330.49C62.2342 329.92 62.5942 329.26 62.9542 328.51C63.3442 327.76 63.7342 326.92 64.1242 325.99C64.1842 326.35 64.2442 326.53 64.3042 326.53C64.4542 326.53 64.7092 326.155 65.0692 325.405C65.4592 324.655 66.0742 323.62 66.9142 322.3C67.3942 321.49 67.9942 320.575 68.7142 319.555C69.4642 318.535 70.2592 317.485 71.0992 316.405C71.9392 315.325 72.7492 314.305 73.5292 313.345C74.3392 312.385 75.0592 311.56 75.6892 310.87C76.3192 310.18 76.7842 309.73 77.0842 309.52C78.2242 308.74 79.1242 307.99 79.7842 307.27C79.7542 307.48 79.7092 307.675 79.6492 307.855C79.6192 308.005 79.6042 308.11 79.6042 308.17C79.6042 308.29 79.6642 308.35 79.7842 308.35L81.0442 307.72V307.9C81.0442 308.14 81.1042 308.26 81.2242 308.26C81.3142 308.26 81.4942 308.125 81.7642 307.855C82.0342 307.585 82.1842 307.39 82.2142 307.27L82.1242 307.9L83.6542 307L83.2942 307.81C83.7742 307.48 84.1192 307.315 84.3292 307.315C84.4492 307.315 84.5392 307.39 84.5992 307.54C84.6592 307.66 84.6892 307.78 84.6892 307.9C84.6892 308.08 84.6142 308.29 84.4642 308.53C84.3142 308.77 84.1192 309.055 83.8792 309.385C83.6992 309.625 83.3992 309.985 82.9792 310.465C82.5892 310.915 81.9892 311.59 81.1792 312.49C80.3692 313.36 79.2892 314.575 77.9392 316.135C77.5792 316.525 77.0242 317.215 76.2742 318.205C75.5242 319.165 74.6692 320.29 73.7092 321.58C72.7792 322.84 71.8492 324.115 70.9192 325.405C69.9892 326.695 69.1642 327.865 68.4442 328.915C67.7242 329.935 67.2142 330.7 66.9142 331.21L64.1242 335.935C63.5242 336.955 63.0292 337.795 62.6392 338.455C62.2492 339.085 61.9492 339.52 61.7392 339.76C61.2892 340.3 60.7942 340.78 60.2542 341.2L59.8492 340.975L59.4892 341.2L59.0842 341.65Z" fill="#BDBDBD"/>
<rect x="104.582" y="318.834" width="192.159" height="16.0133" rx="8.00664" fill="#1B2B42" fill-opacity="0.4"/>
<g filter="url(#filter1_d_2037_2)">
<rect x="126.314" y="109.518" width="340.854" height="409.482" rx="30" fill="#1C2B42"/>
</g>
<g filter="url(#filter2_d_2037_2)">
<rect x="160.628" y="151.839" width="280.232" height="77.7788" rx="10" fill="#3F5072"/>
</g>
<rect x="176.642" y="167.852" width="223.042" height="16.0133" rx="8.00664" fill="#F2F2F2"/>
<rect x="176.642" y="197.591" width="113.237" height="16.0133" rx="8.00664" fill="#F2F2F2"/>
<g filter="url(#filter3_d_2037_2)">
<rect x="160.628" y="269.65" width="280.232" height="77.7788" rx="10" fill="#3F5072"/>
</g>
<rect x="176.642" y="285.664" width="226.473" height="16.0133" rx="8.00664" fill="#F2F2F2"/>
<rect x="176.642" y="315.403" width="113.237" height="16.0133" rx="8.00664" fill="#F2F2F2"/>
<g opacity="0.4">
<g filter="url(#filter4_d_2037_2)">
<rect x="160.628" y="387.462" width="280.232" height="77.7788" rx="10" fill="#3F5072"/>
</g>
<rect x="176.642" y="403.476" width="243.631" height="16.0133" rx="8.00664" fill="#F2F2F2"/>
<rect x="176.642" y="433.215" width="113.237" height="16.0133" rx="8.00664" fill="#F2F2F2"/>
</g>
<g filter="url(#filter5_d_2037_2)">
<rect x="307.035" y="318.834" width="267.65" height="155.381" rx="30" fill="white"/>
<rect x="307.535" y="319.334" width="266.65" height="154.381" rx="29.5" stroke="#BDBDBD"/>
</g>
<rect x="335.776" y="399.668" width="191.307" height="12.5742" rx="6.28709" fill="#1B2B42"/>
<rect x="335.776" y="350.269" width="108.677" height="20.6576" rx="10.3288" fill="#1B2B42"/>
<rect x="335.776" y="430.205" width="88.9174" height="12.5742" rx="6.28709" fill="#1B2B42"/>
<defs>
<filter id="filter0_d_2037_2" x="0.645996" y="0" width="350.854" height="409.188" filterUnits="userSpaceOnUse" color-interpolation-filters="sRGB">
<feFlood flood-opacity="0" result="BackgroundImageFix"/>
<feColorMatrix in="SourceAlpha" type="matrix" values="0 0 0 0 0 0 0 0 0 0 0 0 0 0 0 0 0 0 127 0" result="hardAlpha"/>
<feOffset dx="-4" dy="3"/>
<feGaussianBlur stdDeviation="2.5"/>
<feColorMatrix type="matrix" values="0 0 0 0 0 0 0 0 0 0 0 0 0 0 0 0 0 0 0.25 0"/>
<feBlend mode="normal" in2="BackgroundImageFix" result="effect1_dropShadow_2037_2"/>
<feBlend mode="normal" in="SourceGraphic" in2="effect1_dropShadow_2037_2" result="shape"/>
</filter>
<filter id="filter1_d_2037_2" x="113.314" y="104.518" width="360.854" height="429.482" filterUnits="userSpaceOnUse" color-interpolation-filters="sRGB">
<feFlood flood-opacity="0" result="BackgroundImageFix"/>
<feColorMatrix in="SourceAlpha" type="matrix" values="0 0 0 0 0 0 0 0 0 0 0 0 0 0 0 0 0 0 127 0" result="hardAlpha"/>
<feOffset dx="-3" dy="5"/>
<feGaussianBlur stdDeviation="5"/>
<feColorMatrix type="matrix" values="0 0 0 0 0 0 0 0 0 0 0 0 0 0 0 0 0 0 0.25 0"/>
<feBlend mode="normal" in2="BackgroundImageFix" result="effect1_dropShadow_2037_2"/>
<feBlend mode="normal" in="SourceGraphic" in2="effect1_dropShadow_2037_2" result="shape"/>
</filter>
<filter id="filter2_d_2037_2" x="147.628" y="144.839" width="300.232" height="97.7787" filterUnits="userSpaceOnUse" color-interpolation-filters="sRGB">
<feFlood flood-opacity="0" result="BackgroundImageFix"/>
<feColorMatrix in="SourceAlpha" type="matrix" values="0 0 0 0 0 0 0 0 0 0 0 0 0 0 0 0 0 0 127 0" result="hardAlpha"/>
<feOffset dx="-3" dy="3"/>
<feGaussianBlur stdDeviation="5"/>
<feColorMatrix type="matrix" values="0 0 0 0 0 0 0 0 0 0 0 0 0 0 0 0 0 0 0.1 0"/>
<feBlend mode="normal" in2="BackgroundImageFix" result="effect1_dropShadow_2037_2"/>
<feBlend mode="normal" in="SourceGraphic" in2="effect1_dropShadow_2037_2" result="shape"/>
</filter>
<filter id="filter3_d_2037_2" x="147.628" y="262.65" width="300.232" height="97.7787" filterUnits="userSpaceOnUse" color-interpolation-filters="sRGB">
<feFlood flood-opacity="0" result="BackgroundImageFix"/>
<feColorMatrix in="SourceAlpha" type="matrix" values="0 0 0 0 0 0 0 0 0 0 0 0 0 0 0 0 0 0 127 0" result="hardAlpha"/>
<feOffset dx="-3" dy="3"/>
<feGaussianBlur stdDeviation="5"/>
<feColorMatrix type="matrix" values="0 0 0 0 0 0 0 0 0 0 0 0 0 0 0 0 0 0 0.1 0"/>
<feBlend mode="normal" in2="BackgroundImageFix" result="effect1_dropShadow_2037_2"/>
<feBlend mode="normal" in="SourceGraphic" in2="effect1_dropShadow_2037_2" result="shape"/>
</filter>
<filter id="filter4_d_2037_2" x="147.628" y="380.462" width="300.232" height="97.7787" filterUnits="userSpaceOnUse" color-interpolation-filters="sRGB">
<feFlood flood-opacity="0" result="BackgroundImageFix"/>
<feColorMatrix in="SourceAlpha" type="matrix" values="0 0 0 0 0 0 0 0 0 0 0 0 0 0 0 0 0 0 127 0" result="hardAlpha"/>
<feOffset dx="-3" dy="3"/>
<feGaussianBlur stdDeviation="5"/>
<feColorMatrix type="matrix" values="0 0 0 0 0 0 0 0 0 0 0 0 0 0 0 0 0 0 0.1 0"/>
<feBlend mode="normal" in2="BackgroundImageFix" result="effect1_dropShadow_2037_2"/>
<feBlend mode="normal" in="SourceGraphic" in2="effect1_dropShadow_2037_2" result="shape"/>
</filter>
<filter id="filter5_d_2037_2" x="307.035" y="318.834" width="273.65" height="162.381" filterUnits="userSpaceOnUse" color-interpolation-filters="sRGB">
<feFlood flood-opacity="0" result="BackgroundImageFix"/>
<feColorMatrix in="SourceAlpha" type="matrix" values="0 0 0 0 0 0 0 0 0 0 0 0 0 0 0 0 0 0 127 0" result="hardAlpha"/>
<feOffset dx="4" dy="5"/>
<feGaussianBlur stdDeviation="1"/>
<feColorMatrix type="matrix" values="0 0 0 0 0 0 0 0 0 0 0 0 0 0 0 0 0 0 0.25 0"/>
<feBlend mode="normal" in2="BackgroundImageFix" result="effect1_dropShadow_2037_2"/>
<feBlend mode="normal" in="SourceGraphic" in2="effect1_dropShadow_2037_2" result="shape"/>
</filter>
</defs>
</svg>
